name C:\Users\u0101727\Documents\MyRepositories\upper-imu-dc\Results\main_mocap_tracking\Case_10\kinematics.mot
datacolumns 10
datarows 28
range 2.00000000 2.27000000
endheader 
time	clav_prot	clav_elev	scapula_abduction	scapula_elevation	scapula_upward_rot	scapula_winging	plane_elv	shoulder_elv	axial_rot	
          2.00000000	        -31.05467145	          9.13967250	         -0.15587677	         -1.69721033	         54.87774885	         -7.38078293	         66.99187421	         72.51080992	        -19.78406680	
          2.01000000	        -31.25940663	          9.28009096	         -0.22404479	         -1.63384037	         55.27415446	         -7.49108893	         66.71865682	         72.82836859	        -19.97369841	
          2.02000000	        -31.45937337	          9.41558116	         -0.28729561	         -1.57244383	         55.66425746	         -7.59852345	         66.44831950	         73.14010337	        -20.07316869	
          2.03000000	        -31.65565156	          9.54682483	         -0.34859001	         -1.51262572	         56.04710537	         -7.70345099	         66.18667257	         73.44686744	        -20.05784597	
          2.04000000	        -31.84921565	          9.67449591	         -0.41075851	         -1.45399759	         56.42167903	         -7.80623802	         65.93799480	         73.75006509	        -19.92097941	
          2.05000000	        -32.04058495	          9.79897404	         -0.47564307	         -1.39635335	         56.78706581	         -7.90709982	         65.70412613	         74.05135670	        -19.67481359	
          2.06000000	        -32.22966508	          9.92010544	         -0.54355360	         -1.33982467	         57.14267497	         -8.00600341	         65.48427281	         74.35227848	        -19.34670502	
          2.07000000	        -32.41583335	         10.03710766	         -0.61321156	         -1.28495264	         57.48843995	         -8.10266567	         65.27556887	         74.65387147	        -18.97155638	
          2.08000000	        -32.59820566	         10.14864703	         -0.68215059	         -1.23265034	         57.82492613	         -8.19663760	         65.07410815	         74.95644355	        -18.58351132	
          2.09000000	        -32.77594786	         10.25304248	         -0.74737718	         -1.18407831	         58.15327592	         -8.28742660	         64.87598441	         75.25957809	        -18.21024189	
          2.10000000	        -32.94851223	         10.34851596	         -0.80605919	         -1.14048059	         58.47498791	         -8.37460601	         64.67796486	         75.56242514	        -17.87193052	
          2.11000000	        -33.11576039	         10.43343701	         -0.85608051	         -1.10301820	         58.79161900	         -8.45789153	         64.47770857	         75.86415943	        -17.58430513	
          2.12000000	        -33.27800479	         10.50656409	         -0.89639153	         -1.07260424	         59.10455826	         -8.53719779	         64.27373336	         76.16434612	        -17.36214561	
          2.13000000	        -33.43601356	         10.56729794	         -0.92714547	         -1.04973404	         59.41498024	         -8.61269260	         64.06541242	         76.46297540	        -17.21920899	
          2.14000000	        -33.59098553	         10.61590998	         -0.94962856	         -1.03433356	         59.72396527	         -8.68484130	         63.85310304	         76.76013580	        -17.16337356	
          2.15000000	        -33.74446132	         10.65365859	         -0.96597834	         -1.02567868	         60.03269001	         -8.75440913	         63.63826777	         77.05550587	        -17.18936662	
          2.16000000	        -33.89814284	         10.68272554	         -0.97870372	         -1.02242684	         60.34258837	         -8.82239556	         63.42336261	         77.34791530	        -17.27309443	
          2.17000000	        -34.05364192	         10.70597834	         -0.99011955	         -1.02275797	         60.65539934	         -8.88990515	         63.21137440	         77.63520461	        -17.37117866	
          2.18000000	        -34.21222847	         10.72662362	         -1.00189796	         -1.02458647	         60.97303719	         -8.95798956	         63.00507358	         77.91451905	        -17.42746560	
          2.19000000	        -34.37465765	         10.74782565	         -1.01489379	         -1.02580272	         61.29729275	         -9.02750506	         62.80619680	         78.18297467	        -17.38522512	
          2.20000000	        -34.54111780	         10.77234316	         -1.02924416	         -1.02451430	         61.62947123	         -9.09901582	         62.61483818	         78.43843229	        -17.20061025	
          2.21000000	        -34.71128705	         10.80221864	         -1.04461931	         -1.01926428	         61.97009757	         -9.17275050	         62.42926981	         78.68009164	        -16.85220185	
          2.22000000	        -34.88445651	         10.83855403	         -1.06049982	         -1.00920000	         62.31876078	         -9.24860553	         62.24623595	         78.90877723	        -16.34399876	
          2.23000000	        -35.05968152	         10.88142341	         -1.07642704	         -0.99415281	         62.67409938	         -9.32619092	         62.06158576	         79.12694951	        -15.70261798	
          2.24000000	        -35.23593882	         10.92997687	         -1.09222206	         -0.97458880	         63.03390841	         -9.40491919	         61.87102178	         79.33851556	        -14.97121608	
          2.25000000	        -35.41227155	         10.98273956	         -1.10815005	         -0.95142438	         63.39535880	         -9.48412883	         61.67074252	         79.54847428	        -14.20253284	
          2.26000000	        -35.58789341	         11.03802651	         -1.12496901	         -0.92575704	         63.75531200	         -9.56321216	         61.45781976	         79.76241138	        -13.45252213	
          2.27000000	        -35.76222261	         11.09433840	         -1.14381461	         -0.89859931	         64.11067495	         -9.64170603	         61.23026074	         79.98589609	        -12.77515099	
